<svg id="Layer_1" data-name="Layer 1" xmlns="http://www.w3.org/2000/svg" viewBox="0 0 24 24"><defs><style>.cls-1{fill:#005073;}.cls-2{fill:none;stroke:#fff;stroke-miterlimit:10;stroke-width:2px;}.cls-3{fill:#fff;}</style></defs><title>circle-arow</title><path class="cls-1" d="M12,23h0A11,11,0,1,1,23,12,11,11,0,0,1,12,23"/><path class="cls-2" d="M12,23h0A11,11,0,1,1,23,12,11,11,0,0,1,12,23Z"/><polygon class="cls-3" points="9.11 15.56 5.59 12.02 9.06 8.52 10.48 9.93 8.41 12.02 10.53 14.15 9.11 15.56"/><polygon class="cls-3" points="14.39 15.56 12.97 14.15 15.09 12.02 13.02 9.93 14.44 8.52 17.91 12.02 14.39 15.56"/></svg>