<svg xmlns="http://www.w3.org/2000/svg" xmlns:xlink="http://www.w3.org/1999/xlink" viewBox="0 0 59 33.83"><defs><style>.cls-1{fill:#00bceb;}</style><symbol id="actions_2" data-name="actions 2" viewBox="0 0 32766 32766"/></defs><title>cisco-logo</title><g id="Body_Content" data-name="Body Content"><use id="actions_2-3" data-name="actions 2" width="32766" height="32766" transform="translate(-12280 -24838.62)" xlink:href="#actions_2"/><use id="left_panel_3-3" data-name="left panel 3" width="32766" height="32766" transform="translate(-18003 -15249.62)" xlink:href="#actions_2"/><path id="_Path_" data-name="&lt;Path&gt;" class="cls-1" d="M59,10.81a1.51,1.51,0,0,0-3,0V13.7a1.51,1.51,0,0,0,3,0Z"/><rect id="_Path_2" data-name="&lt;Path&gt;" class="cls-1" x="17" y="22.38" width="3" height="11"/><path id="_Path_3" data-name="&lt;Path&gt;" class="cls-1" d="M41,25.78c-1-.06-1.55-.59-2.83-.59A3.08,3.08,0,0,0,35,28.13a3.22,3.22,0,0,0,3.36,2.94c1.26,0,1.69-.52,2.69-.59v2.95a25,25,0,0,1-3,.39,5.72,5.72,0,0,1-5.93-5.69,5.86,5.86,0,0,1,6.08-5.69,24.69,24.69,0,0,1,2.87.39Z"/><path id="_Path_4" data-name="&lt;Path&gt;" class="cls-1" d="M13,25.78a7.56,7.56,0,0,0-2.79-.59A3.06,3.06,0,0,0,7,28.13a3.19,3.19,0,0,0,3.34,2.94A6.51,6.51,0,0,0,13,30.48v2.95a24.29,24.29,0,0,1-3,.39,5.7,5.7,0,0,1-5.91-5.69,5.83,5.83,0,0,1,6-5.69,24,24,0,0,1,2.85.39Z"/><path id="_Compound_Path_" data-name="&lt;Compound Path&gt;" class="cls-1" d="M53.85,28.13a5.6,5.6,0,1,1-11.19,0,5.6,5.6,0,1,1,11.19,0m-5.59-2.89A2.89,2.89,0,1,0,51,28.13a2.79,2.79,0,0,0-2.76-2.89"/><path id="_Path_5" data-name="&lt;Path&gt;" class="cls-1" d="M30,25.13a13,13,0,0,0-2.38-.33c-1.08,0-1.81.37-1.81.9s.72.9,1.16,1.05l.7.24a3.26,3.26,0,0,1,2.51,3.14c0,2.77-1.79,3.69-3.84,3.69a7.05,7.05,0,0,1-2.34-.3V31a3.7,3.7,0,0,0,2,.41c1.33,0,1.66-.4,1.66-1S27,29.5,26.3,29.28c-.16-.06-.48-.13-.64-.19-1.49-.49-2.77-1.4-2.77-3.22,0-2.06,1.76-3.44,4.23-3.44a14.16,14.16,0,0,1,2.88.35Z"/><path id="_Path_6" data-name="&lt;Path&gt;" class="cls-1" d="M3,10.81a1.51,1.51,0,0,0-3,0V13.7a1.51,1.51,0,0,0,3,0Z"/><path id="_Path_7" data-name="&lt;Path&gt;" class="cls-1" d="M10,7A1.51,1.51,0,0,0,7,7V13.7a1.51,1.51,0,0,0,3,0Z"/><path id="_Path_8" data-name="&lt;Path&gt;" class="cls-1" d="M16,1.84c0-.76-.27-1.37-1-1.37s-1,.61-1,1.37v14.6c0,.76.27,1.38,1,1.38s1-.62,1-1.38Z"/><path id="_Path_9" data-name="&lt;Path&gt;" class="cls-1" d="M24,7a1.51,1.51,0,0,0-3,0V13.7a1.51,1.51,0,0,0,3,0Z"/><path id="_Path_10" data-name="&lt;Path&gt;" class="cls-1" d="M31,10.81a1.51,1.51,0,0,0-3,0V13.7a1.51,1.51,0,0,0,3,0Z"/><path id="_Path_11" data-name="&lt;Path&gt;" class="cls-1" d="M38,7c0-.75-.4-1.37-1.5-1.37S35,6.27,35,7V13.7c0,.76.4,1.38,1.5,1.38S38,14.46,38,13.7Z"/><path id="_Path_12" data-name="&lt;Path&gt;" class="cls-1" d="M45,1.41a1.5,1.5,0,0,0-3,0v15a1.5,1.5,0,0,0,3,0Z"/><path id="_Path_13" data-name="&lt;Path&gt;" class="cls-1" d="M17,1.41A1.31,1.31,0,0,0,15.5,0,1.31,1.31,0,0,0,14,1.41v15a1.31,1.31,0,0,0,1.5,1.41A1.31,1.31,0,0,0,17,16.41Z"/><path id="_Path_14" data-name="&lt;Path&gt;" class="cls-1" d="M52,7a1.51,1.51,0,0,0-3,0V13.7a1.51,1.51,0,0,0,3,0Z"/></g></svg>