<?xml version="1.0" encoding="utf-8"?>
<!-- Generator: Adobe Illustrator 22.0.0, SVG Export Plug-In . SVG Version: 6.00 Build 0)  -->
<svg version="1.1" id="Layer_1" xmlns="http://www.w3.org/2000/svg" xmlns:xlink="http://www.w3.org/1999/xlink" x="0px" y="0px"
	 viewBox="0 0 14 10" style="enable-background:new 0 0 14 10;" xml:space="preserve">
<style type="text/css">
	.st0{fill:#00BCEB;}
</style>
<title>Error</title>
<g>
	<g>
		<path class="st0" d="M13.1,0H0.9C0.4,0,0,0.4,0,1v8c0,0.6,0.4,1,0.9,1h12.2c0.5,0,0.9-0.4,0.9-1V1C14,0.4,13.6,0,13.1,0z
			 M11.8,3.9L7,7.2L2.2,3.9C1.8,3.6,1.6,3,1.9,2.5C2.1,2,2.7,1.9,3.1,2.1L7,4.8l3.9-2.7c0.4-0.3,1-0.1,1.2,0.3
			C12.4,3,12.2,3.6,11.8,3.9z"/>
	</g>
</g>
</svg>
