<?xml version="1.0" encoding="utf-8"?>
<!-- Generator: Adobe Illustrator 22.0.0, SVG Export Plug-In . SVG Version: 6.00 Build 0)  -->
<svg version="1.1" id="Layer_1" xmlns="http://www.w3.org/2000/svg" xmlns:xlink="http://www.w3.org/1999/xlink" x="0px" y="0px"
	 viewBox="0 0 13 13" style="enable-background:new 0 0 13 13;" xml:space="preserve">
<style type="text/css">
	.st0{fill:#00BCEB;}
</style>
<title>Error</title>
<g>
	<path class="st0" d="M12.2,1.4l-0.6-0.6c-1-1-2.7-1-3.7,0L6.1,2.6c0.7-0.3,1.6-0.2,2.3,0.2L9.2,2c0.3-0.3,0.9-0.3,1.2,0L11,2.6
		c0.3,0.3,0.3,0.9,0,1.2L7.3,7.5C7,7.9,6.4,7.9,6.1,7.5L5.6,7L4.3,8.2l0.5,0.5c1,1,2.7,1,3.7,0l3.7-3.7C13.3,4,13.3,2.4,12.2,1.4z"
		/>
	<path class="st0" d="M4.6,10.3L3.8,11c-0.3,0.3-0.9,0.3-1.2,0L2,10.4c-0.3-0.3-0.3-0.9,0-1.2l3.7-3.7c0.3-0.3,0.9-0.3,1.2,0L7.4,6
		l1.3-1.2L8.1,4.2c-1-1-2.7-1-3.7,0L0.8,7.9c-1,1-1,2.7,0,3.7l0.6,0.6c1,1,2.7,1,3.7,0l1.8-1.8C6.1,10.7,5.3,10.7,4.6,10.3z"/>
</g>
</svg>
