<?xml version="1.0" encoding="utf-8"?>
<!-- Generator: Adobe Illustrator 21.1.0, SVG Export Plug-In . SVG Version: 6.00 Build 0)  -->
<svg version="1.1" id="Layer_1" xmlns="http://www.w3.org/2000/svg" xmlns:xlink="http://www.w3.org/1999/xlink" x="0px" y="0px"
	 viewBox="0 0 9.1 13" style="enable-background:new 0 0 9.1 13;" xml:space="preserve">
<style type="text/css">
	.st0{fill-rule:evenodd;clip-rule:evenodd;fill:#58585B;}
</style>
<path class="st0" d="M1.5,0C2.3,0,3,0.7,3,1.5C3,2.3,2.3,3,1.5,3C0.7,3,0,2.3,0,1.5C0,0.7,0.7,0,1.5,0"/>
<path class="st0" d="M1.5,5C2.3,5,3,5.7,3,6.5C3,7.3,2.3,8,1.5,8C0.7,8,0,7.3,0,6.5C0,5.7,0.7,5,1.5,5"/>
<path class="st0" d="M1.5,10C2.3,10,3,10.7,3,11.5C3,12.3,2.3,13,1.5,13C0.7,13,0,12.3,0,11.5C0,10.7,0.7,10,1.5,10"/>
<path class="st0" d="M7.6,0c0.8,0,1.5,0.7,1.5,1.5C9.1,2.3,8.4,3,7.6,3C6.7,3,6.1,2.3,6.1,1.5C6.1,0.7,6.7,0,7.6,0"/>
<path class="st0" d="M7.6,5c0.8,0,1.5,0.7,1.5,1.5C9.1,7.3,8.4,8,7.6,8C6.7,8,6.1,7.3,6.1,6.5C6.1,5.7,6.7,5,7.6,5"/>
<path class="st0" d="M7.6,10c0.8,0,1.5,0.7,1.5,1.5c0,0.8-0.7,1.5-1.5,1.5c-0.8,0-1.5-0.7-1.5-1.5C6.1,10.7,6.7,10,7.6,10"/>
</svg>
