<?xml version="1.0" encoding="utf-8"?>
<!-- Generator: Adobe Illustrator 21.1.0, SVG Export Plug-In . SVG Version: 6.00 Build 0)  -->
<svg version="1.1" id="Layer_1" xmlns="http://www.w3.org/2000/svg" xmlns:xlink="http://www.w3.org/1999/xlink" x="0px" y="0px"
	 viewBox="0 0 16 16" style="enable-background:new 0 0 16 16;" xml:space="preserve">
<style type="text/css">
	.st0{fill:#01BCEA;}
</style>
<g>
	<polygon class="st0" points="2,2 6,2 6,0 0,0 0,6 2,6 	"/>
	<polygon class="st0" points="2,14 2,10 0,10 0,16 6,16 6,14 	"/>
	<polygon class="st0" points="14,14 10,14 10,16 16,16 16,10 14,10 	"/>
	<polygon class="st0" points="10,0 10,2 14,2 14,6 16,6 16,0 	"/>
</g>
<path class="st0" d="M10,8c0,1.1-0.9,2-2,2c-1.1,0-2-0.9-2-2c0-1.1,0.9-2,2-2C9.1,6,10,6.9,10,8"/>
</svg>
