<?xml version="1.0" encoding="utf-8"?>
<!-- Generator: Adobe Illustrator 21.1.0, SVG Export Plug-In . SVG Version: 6.00 Build 0)  -->
<svg version="1.1" id="Layer_1" xmlns="http://www.w3.org/2000/svg" xmlns:xlink="http://www.w3.org/1999/xlink" x="0px" y="0px"
	 viewBox="0 0 14 14" style="enable-background:new 0 0 14 14;" xml:space="preserve">
<style type="text/css">
	.st0{fill:#CBCBCB;}
</style>
<path class="st0" d="M13.7,12.3L10,8.6c0.8-1.2,1.2-2.8,0.8-4.4c-0.5-2-2.1-3.6-4.1-4.1c-4-0.9-7.5,2.6-6.6,6.6
	c0.4,2,2.1,3.6,4.1,4.1c1.6,0.4,3.2,0,4.4-0.8l3.7,3.7c0.2,0.2,0.5,0.3,0.7,0.3s0.5-0.1,0.7-0.3C14.1,13.3,14.1,12.7,13.7,12.3
	 M6.2,8.9C3.7,9.4,1.6,7.3,2.1,4.8c0.3-1.4,1.4-2.5,2.7-2.7c2.5-0.5,4.6,1.7,4.1,4.1C8.7,7.6,7.6,8.7,6.2,8.9"/>
</svg>
