<svg xmlns="http://www.w3.org/2000/svg" viewBox="0 0 16 16"><defs><style>.cls-1{fill:#27aae1;}.cls-2{fill:#fff;fill-rule:evenodd;}</style></defs><title>info</title><g id="Layer_2" data-name="Layer 2"><g id="Page_Content" data-name="Page Content"><circle class="cls-1" cx="8" cy="8" r="8"/><path class="cls-2" d="M7.87,2.87a1.25,1.25,0,0,1,0,2.5A1.26,1.26,0,0,1,6.61,4.12,1.24,1.24,0,0,1,7.87,2.87"/><path class="cls-2" d="M10,12a1.94,1.94,0,0,0-.72,1H6.06A1.26,1.26,0,0,1,6,12v-.82L6.06,11H7V7H6.05C5.79,7.33,6,6.94,6,6.94V6.46c0-.31.13-.46.39-.46H8.61A.39.39,0,0,1,9,6.39V12h.28s.39-1.09.72-.83Z"/></g></g></svg>