<svg xmlns="http://www.w3.org/2000/svg" viewBox="0 0 15.71 17.72"><defs><style>.cls-1{fill:#00bceb;}</style></defs><title>Asset 1</title><g id="Layer_2" data-name="Layer 2"><g id="global_menu" data-name="global menu"><path class="cls-1" d="M9.23,2a6.17,6.17,0,0,1,4.38,4.09,3.53,3.53,0,0,1,.21,1.25c0,1.75,0,3.5,0,5.25a.89.89,0,0,0,.18.49,8.42,8.42,0,0,0,1.22,1.24,1.26,1.26,0,0,1,.42,1.36H.05a1.16,1.16,0,0,1,.39-1.33,3.37,3.37,0,0,0,1.44-3.4,18.21,18.21,0,0,1,0-3.69A5.75,5.75,0,0,1,6,2.14a.59.59,0,0,0,.49-.68A1.34,1.34,0,0,1,7.85,0,1.37,1.37,0,0,1,9.23,1.5V2M6.54,15.86a1.44,1.44,0,0,0,1.21,1.85A1.42,1.42,0,0,0,9.28,15.9l-2.74,0"/></g></g></svg>